<svg xmlns="http://www.w3.org/2000/svg" width="122.399" height="24.857" viewBox="0 0 122.399 24.857">
    <defs>
        <style>
            .cls-1{fill:#f2562d}
        </style>
    </defs>
    <g id="logo" transform="translate(-484.358 -113.036)">
        <g id="Group_52" transform="translate(512.838 121.097)">
            <g id="Group_51" transform="translate(50.445 4.255)">
                <path id="Path_64" d="M1700.738 238.034a.521.521 0 0 1-.1-.314.3.3 0 0 1 .167-.247.316.316 0 0 1 .247-.08.421.421 0 0 1 .26.134 2.846 2.846 0 0 0 .874.754 2.463 2.463 0 0 0 1.221.287 2.255 2.255 0 0 0 .74-.127 1.454 1.454 0 0 0 .607-.387 1.037 1.037 0 0 0 0-1.328 1.669 1.669 0 0 0-.62-.4 6.946 6.946 0 0 0-.807-.253q-.454-.12-.881-.273a3.067 3.067 0 0 1-.754-.387 1.877 1.877 0 0 1-.527-.567 1.557 1.557 0 0 1-.2-.814 1.646 1.646 0 0 1 .307-.987 2.042 2.042 0 0 1 .834-.667 2.843 2.843 0 0 1 1.194-.24 3.31 3.31 0 0 1 .72.087 3 3 0 0 1 .76.287 2.284 2.284 0 0 1 .667.547.377.377 0 0 1 .12.274.361.361 0 0 1-.133.273.4.4 0 0 1-.247.08.3.3 0 0 1-.234-.107 2.1 2.1 0 0 0-.76-.547 2.4 2.4 0 0 0-.947-.187 2.065 2.065 0 0 0-.727.127 1.406 1.406 0 0 0-.567.38.962.962 0 0 0-.227.667.93.93 0 0 0 .273.627 1.944 1.944 0 0 0 .654.4 8.248 8.248 0 0 0 .914.294 7.6 7.6 0 0 1 .82.253 2.851 2.851 0 0 1 .694.367 1.647 1.647 0 0 1 .48.554 1.752 1.752 0 0 1 .18.84 1.62 1.62 0 0 1-.327 1.014 2.07 2.07 0 0 1-.874.654 3.141 3.141 0 0 1-1.214.227 3.6 3.6 0 0 1-1.395-.28 3 3 0 0 1-1.192-.935z" class="cls-1" transform="translate(-1700.637 -229.242)"/>
                <path id="Path_65" d="M1721.71 227.428a2.343 2.343 0 0 1 1.361.36 2.113 2.113 0 0 1 .767.974 3.622 3.622 0 0 1 .247 1.361v3.777a.411.411 0 0 1-.4.4.371.371 0 0 1-.294-.12.407.407 0 0 1-.107-.28v-3.775a2.772 2.772 0 0 0-.167-.987 1.464 1.464 0 0 0-.54-.7 1.722 1.722 0 0 0-1-.26 2.266 2.266 0 0 0-1.061.26 2.2 2.2 0 0 0-.807.7 1.686 1.686 0 0 0-.307.987v3.775a.411.411 0 0 1-.4.4.371.371 0 0 1-.294-.12.407.407 0 0 1-.107-.28v-9.072a.4.4 0 0 1 .113-.28.4.4 0 0 1 .574 0 .394.394 0 0 1 .114.28v4.323l-.307.467a1.791 1.791 0 0 1 .26-.807 2.762 2.762 0 0 1 .607-.707 3.01 3.01 0 0 1 .827-.494 2.473 2.473 0 0 1 .921-.182z" class="cls-1" transform="translate(-1711.856 -224.426)"/>
                <path id="Path_66" d="M1744.329 235.7a3.7 3.7 0 0 1-.447 1.821 3.347 3.347 0 0 1-1.207 1.267 3.435 3.435 0 0 1-3.435 0 3.327 3.327 0 0 1-1.214-1.267 3.948 3.948 0 0 1 0-3.649 3.387 3.387 0 0 1 1.214-1.267 3.392 3.392 0 0 1 3.435 0 3.407 3.407 0 0 1 1.207 1.267 3.688 3.688 0 0 1 .447 1.828zm-.8 0a3.061 3.061 0 0 0-.333-1.447 2.585 2.585 0 0 0-.914-1 2.434 2.434 0 0 0-1.328-.367 2.408 2.408 0 0 0-1.314.367 2.632 2.632 0 0 0-.921 1 3.011 3.011 0 0 0-.341 1.447 2.973 2.973 0 0 0 .341 1.441 2.639 2.639 0 0 0 .921.994 2.4 2.4 0 0 0 1.314.367 2.431 2.431 0 0 0 1.328-.367 2.592 2.592 0 0 0 .914-.994 3.022 3.022 0 0 0 .332-1.441z" class="cls-1" transform="translate(-1723.709 -229.242)"/>
                <path id="Path_67" d="M1763.171 232.421a2.922 2.922 0 0 1 1.608.447 3.2 3.2 0 0 1 1.114 1.227 3.783 3.783 0 0 1 .413 1.795 3.822 3.822 0 0 1-.413 1.8 3.22 3.22 0 0 1-1.121 1.241 2.879 2.879 0 0 1-1.587.454 2.783 2.783 0 0 1-.887-.14 3.007 3.007 0 0 1-.767-.38 2.954 2.954 0 0 1-.613-.567 2.829 2.829 0 0 1-.427-.714l.24-.173v4.149a.4.4 0 0 1-.113.28.4.4 0 0 1-.574 0 .4.4 0 0 1-.113-.28v-8.7a.428.428 0 0 1 .107-.294.373.373 0 0 1 .294-.12.379.379 0 0 1 .287.12.413.413 0 0 1 .113.294v1.44l-.187-.107a2.317 2.317 0 0 1 .394-.741 2.7 2.7 0 0 1 1.367-.914 3.094 3.094 0 0 1 .865-.117zm-.067.747a2.285 2.285 0 0 0-1.267.354 2.468 2.468 0 0 0-.861.961 3.028 3.028 0 0 0-.313 1.408 3.12 3.12 0 0 0 .313 1.414 2.431 2.431 0 0 0 .861.981 2.281 2.281 0 0 0 1.267.354 2.226 2.226 0 0 0 1.248-.354 2.5 2.5 0 0 0 .86-.981 3.059 3.059 0 0 0 .32-1.414 2.982 2.982 0 0 0-.32-1.4 2.526 2.526 0 0 0-.86-.967 2.229 2.229 0 0 0-1.252-.356z" class="cls-1" transform="translate(-1737.668 -229.419)"/>
                <path id="Path_68" d="M1783.595 239.248a3.651 3.651 0 0 1-1.814-.44 3.13 3.13 0 0 1-1.227-1.227 3.706 3.706 0 0 1-.44-1.841 3.911 3.911 0 0 1 .447-1.935 3.27 3.27 0 0 1 1.161-1.234 2.867 2.867 0 0 1 1.514-.434 3.236 3.236 0 0 1 1.141.207 2.856 2.856 0 0 1 .981.613 3.168 3.168 0 0 1 .694.994 3.406 3.406 0 0 1 .28 1.361.363.363 0 0 1-.12.273.4.4 0 0 1-.281.113h-5.35l-.16-.72h5.256l-.173.16v-.267a2.034 2.034 0 0 0-.414-1.067 2.275 2.275 0 0 0-.834-.667 2.4 2.4 0 0 0-1.021-.227 2.29 2.29 0 0 0-.82.16 2.149 2.149 0 0 0-.76.5 2.574 2.574 0 0 0-.554.867 3.315 3.315 0 0 0-.213 1.247 3.146 3.146 0 0 0 .32 1.428 2.471 2.471 0 0 0 .92 1.014 2.7 2.7 0 0 0 1.455.374 2.445 2.445 0 0 0 .827-.134 2.408 2.408 0 0 0 .66-.353 2.617 2.617 0 0 0 .474-.46.449.449 0 0 1 .28-.12.325.325 0 0 1 .247.107.343.343 0 0 1 .1.24.367.367 0 0 1-.134.28 3.589 3.589 0 0 1-1.04.834 2.855 2.855 0 0 1-1.402.354z" class="cls-1" transform="translate(-1750.275 -229.242)"/>
                <path id="Path_69" d="M1803.353 239.248a3.652 3.652 0 0 1-1.814-.44 3.129 3.129 0 0 1-1.227-1.227 3.71 3.71 0 0 1-.44-1.841 3.911 3.911 0 0 1 .447-1.935 3.275 3.275 0 0 1 1.161-1.234 2.869 2.869 0 0 1 1.514-.434 3.236 3.236 0 0 1 1.141.207 2.858 2.858 0 0 1 .981.613 3.171 3.171 0 0 1 .694.994 3.412 3.412 0 0 1 .281 1.361.362.362 0 0 1-.12.273.4.4 0 0 1-.28.113h-5.35l-.16-.72h5.257l-.173.16v-.267a2.035 2.035 0 0 0-.413-1.067 2.28 2.28 0 0 0-.834-.667 2.4 2.4 0 0 0-1.021-.227 2.29 2.29 0 0 0-.82.16 2.151 2.151 0 0 0-.761.5 2.576 2.576 0 0 0-.554.867 3.315 3.315 0 0 0-.213 1.247 3.143 3.143 0 0 0 .32 1.428 2.469 2.469 0 0 0 .921 1.014 2.7 2.7 0 0 0 1.454.374 2.443 2.443 0 0 0 .827-.134 2.4 2.4 0 0 0 .66-.353 2.6 2.6 0 0 0 .474-.46.449.449 0 0 1 .28-.12.326.326 0 0 1 .247.107.344.344 0 0 1 .1.24.366.366 0 0 1-.134.28 3.591 3.591 0 0 1-1.04.834 2.854 2.854 0 0 1-1.405.354z" class="cls-1" transform="translate(-1762.615 -229.242)"/>
            </g>
            <path id="Union_1" d="M1576.557 220.5v6.146c0 .545 0 .545-.561.545h-2.549c-.63 0-.635 0-.635-.624q0-4.142-.005-8.283v-4.674c0-.149.022-.3.034-.446l.093-.068 8.215 6.769v-6.211c0-.517.024-.542.538-.542h2.727c.406 0 .477.071.477.473v13.279a.7.7 0 0 1-.116.379zm26.3 6.716c-.511-.007-1.022 0-1.533 0h-1.052c-.485 0-.568-.139-.353-.586q3.1-6.489 6.218-12.969c.063-.132.214-.222.324-.332.109.112.258.2.322.337q3.092 6.473 6.174 12.949c.226.476.158.579-.37.579h-.821c-.671 0-1.343 0-2.014.008a.445.445 0 0 1-.478-.315q-1.416-3.217-2.838-6.43c-.032-.072-.071-.142-.147-.29-.489 1.136-.946 2.193-1.4 3.251-.493 1.147-.993 2.292-1.47 3.445a.51.51 0 0 1-.544.362zm-14.745-1.927c-.59-.567-.586-.613.062-1.1.579-.43 1.158-.855 1.726-1.3a.37.37 0 0 1 .522-.034.38.38 0 0 1 .073.088 3.4 3.4 0 0 0 3.383 1.114 1.031 1.031 0 0 0 .93-.842.992.992 0 0 0-.706-1.031c-.649-.275-1.317-.506-1.985-.733a6.236 6.236 0 0 1-2.593-1.452 3.9 3.9 0 0 1-1.03-3.384 4.055 4.055 0 0 1 3.6-3.4 8.716 8.716 0 0 1 1.231-.092 6.307 6.307 0 0 1 3.012.723 7.848 7.848 0 0 1 1.083.791.335.335 0 0 1 .031.568c-.521.543-1.042 1.09-1.555 1.646a.364.364 0 0 1-.6.034 2.869 2.869 0 0 0-2.433-.683.89.89 0 0 0-.31 1.7c.649.272 1.322.49 1.989.716a7.775 7.775 0 0 1 2.744 1.415 3.534 3.534 0 0 1 1.159 2.741 3.938 3.938 0 0 1-1.52 3.441 4.992 4.992 0 0 1-2.383.9c-.418.058-.844.068-1.265.1a7.187 7.187 0 0 1-5.165-1.929zm-21.414 1.907c-.307 0-.421-.116-.421-.432q.007-6.605 0-13.209c0-.344.148-.449.459-.449h.015c.6.007 1.192 0 1.785 0h1.013c.421 0 .494.073.494.5v13.068c0 .5-.021.516-.521.516h-.819c-.66 0-1.319 0-1.979.006z" class="cls-1" transform="translate(-1566.273 -213.093)"/>
        </g>
        <g id="Group_53" transform="translate(481.313 111.672)">
            <path id="Path_70" d="M1479.389 227.5h-7.013a2.218 2.218 0 0 1-2.278-1.752 13.6 13.6 0 0 1-.266-2.032c-.114-1.357-.193-2.718-.3-4.076-.119-1.571-.253-3.14-.372-4.711-.084-1.108-.162-2.217-.228-3.326a.936.936 0 0 1 1.029-1.09h4.4c.538 0 .53 0 .56-.524a8.352 8.352 0 0 1 1.311-4.248 3.715 3.715 0 0 1 6.41.142 8.856 8.856 0 0 1 1.324 4.31c.018.265.1.327.345.325 1.475-.007 2.95.019 4.425-.013.925-.02 1.237.369 1.177 1.221q-.149 2.108-.3 4.215c-.059.85-.11 1.7-.172 2.551-.067.915-.145 1.829-.214 2.744-.09 1.191-.175 2.384-.264 3.575a3.4 3.4 0 0 1-.519 1.622 2.26 2.26 0 0 1-1.99 1.072c-2.356.01-4.712 0-7.069 0zm.046-16.986h3.087c.309 0 .357-.062.316-.364-.038-.284-.063-.571-.115-.852a7.322 7.322 0 0 0-1.157-3.063 2.583 2.583 0 0 0-4.292-.029 7.164 7.164 0 0 0-1.241 3.942c-.022.352 0 .366.343.366 1.019-.001 2.038-.003 3.059-.002zm.177 2.829a6.052 6.052 0 0 0-1.386.239 2.683 2.683 0 0 0-1.782 1.883 2.25 2.25 0 0 0 .916 2.519 8.5 8.5 0 0 0 2.416 1.168 5.07 5.07 0 0 1 2.008 1.2 1.642 1.642 0 0 1-.271 2.573 3.1 3.1 0 0 1-1.957.5 5.212 5.212 0 0 1-2.826-1.042c-.279-.2-.515-.186-.688.035a.46.46 0 0 0 .133.677 5.308 5.308 0 0 0 1.731.922 4.8 4.8 0 0 0 3.958-.234 2.589 2.589 0 0 0 .872-3.7 5.233 5.233 0 0 0-2.751-1.833 7.543 7.543 0 0 1-2.025-.953 1.456 1.456 0 0 1-.126-2.411 2.755 2.755 0 0 1 2.447-.587 4.073 4.073 0 0 1 1.5.641.394.394 0 0 0 .622-.117.452.452 0 0 0-.128-.637 1.552 1.552 0 0 0-.16-.111 4.71 4.71 0 0 0-2.504-.734z" class="cls-1" transform="translate(-1465.888 -202.609)"/>
        </g>
    </g>
</svg>
